# xmcd CD database file
#
# Track frame offsets:
#	150
#	22802
#	44324
#	65261
#	90594
#	114635
#	137581
#	161686
#	191658
#	214109
#	238781
#
# Disc length: 3753 seconds
#
# Revision: 2
# Processed by: cddbd v1.5.2PL0 Copyright (c) Steve Scherf et al.
# Submitted via: CDex 1.70beta2
#
DISCID=900ea70b
DTITLE=Buick 6 - Live at the Telegraph
DYEAR=2008
DGENRE=Blues
TTITLE0=From a Buick Six
TTITLE1=A Few of Your Lines
TTITLE2=Nobody's Fault but Mine
TTITLE3=Travelling Riverside Blues
TTITLE4=In my time of dying
TTITLE5=Nothing Left To Lose
TTITLE6=Hellhound on my Trail
TTITLE7=Shiftin' Sand
TTITLE8=No Bed of Roses
TTITLE9=Barrelhouse Woman
TTITLE10=Jitterbug Swing
EXTD=YEAR: 2008
EXTT0=
EXTT1=
EXTT2=
EXTT3=
EXTT4=
EXTT5=
EXTT6=
EXTT7=
EXTT8=
EXTT9=
EXTT10=
PLAYORDER=
